
<svg xmlns="http://www.w3.org/2000/svg" xmlns:xlink="http://www.w3.org/1999/xlink" version="1.1" viewBox="0 0 3196.72131147541 944.2622950819672">
	<g transform="scale(9.836065573770492) translate(10, 10)">
		<defs id="SvgjsDefs1055">
           <!-- <mask id="monogram">
               <rect width="100%" height="100%" fill="white"/>
               <g id="SvgjsG1057" featureKey="monogramFeature-0" transform="matrix(0.9577898605395715,0,0,0.9577898605395715,15.12670120839955,0.8046898710355919)" fill="black">
                   <path d="M42.114 29.863 c0.76776 1.7332 1.1562 3.6032 1.0711 5.4502 c-0.070548 1.8464 -0.61272 3.6425 -1.4733 5.2441 c-0.86436 1.6029 -2.0459 3.0209 -3.3698 4.2087 c-0.58283 0.5059 -1.1777 0.97494 -1.7968 1.3913 c-0.61458 0.40043 -1.2038 0.78054 -1.8336 1.1123 c-4.3365 2.3701 -9.2064 3.2707 -13.847 2.7539 l-1.5476 8.949 c-0.23514 1.2286 -5.3496 1.1986 -5.7119 -0.048985 l-4.2336 -27.3 c-2.5931 0.7659 -4.6346 1.1383 -4.7102 0.6057 l-0.081972 -0.32479 l-1.5794 -6.267 l4.048 -2.9815 c2.9198 -2.1508 6.1956 -3.511 9.4596 -4.1821 c3.2719 -0.67878 6.5574 -0.6813 9.7098 -0.08133 c3.1492 0.59361 6.1866 1.777 8.8872 3.5598 c0.66162 0.47162 1.3207 0.94194 1.9417 1.4612 l0.9057 0.81672 c0.30697 0.27392 0.58025 0.53959 0.88722 0.86436 c1.3684 1.4237 2.5086 3.0305 3.2745 4.7681 z M32.395 36.947 c0.23514 -0.94002 -0.086544 -1.9011 -0.70812 -2.4604 c-0.29807 -0.28664 -0.63492 -0.49195 -0.9597 -0.63624 c-0.25166 -0.16652 -0.61584 -0.32608 -0.89736 -0.49892 c-0.31459 -0.15381 -0.6495 -0.27838 -0.96348 -0.42011 c-1.3315 -0.47666 -2.7889 -0.68256 -4.2234 -0.6171 c-0.24404 0.0089064 -0.48557 0.038789 -0.72708 0.065508 l-1.9811 11.456 c3.0666 -0.46207 5.9407 -1.7644 8.1132 -3.6463 c0.34763 -0.28283 0.6711 -0.61458 0.97362 -0.91392 c0.28858 -0.29807 0.54088 -0.6171 0.7722 -0.92916 c0.29174 -0.46013 0.49447 -0.9273 0.60126 -1.3989 z"></path>
               </g>
           </mask> -->
        </defs>
		<g  id="SvgjsG1056" featureKey="symbolContainer" transform="matrix(0.95,0,0,0.95,0,0)" class="fill-inherit">
			<rect mask="url(#monogram)" xmlns="http://www.w3.org/2000/svg" width="79" height="80" rx="10" ry="10"></rect>
		</g>
        <g id="SvgjsG1057" featureKey="monogramFeature-0" transform="matrix(0.9577898605395715,0,0,0.9577898605395715,15.12670120839955,0.8046898710355919)" class="fill-tertiary brightness-90">
            <path d="M42.114 29.863 c0.76776 1.7332 1.1562 3.6032 1.0711 5.4502 c-0.070548 1.8464 -0.61272 3.6425 -1.4733 5.2441 c-0.86436 1.6029 -2.0459 3.0209 -3.3698 4.2087 c-0.58283 0.5059 -1.1777 0.97494 -1.7968 1.3913 c-0.61458 0.40043 -1.2038 0.78054 -1.8336 1.1123 c-4.3365 2.3701 -9.2064 3.2707 -13.847 2.7539 l-1.5476 8.949 c-0.23514 1.2286 -5.3496 1.1986 -5.7119 -0.048985 l-4.2336 -27.3 c-2.5931 0.7659 -4.6346 1.1383 -4.7102 0.6057 l-0.081972 -0.32479 l-1.5794 -6.267 l4.048 -2.9815 c2.9198 -2.1508 6.1956 -3.511 9.4596 -4.1821 c3.2719 -0.67878 6.5574 -0.6813 9.7098 -0.08133 c3.1492 0.59361 6.1866 1.777 8.8872 3.5598 c0.66162 0.47162 1.3207 0.94194 1.9417 1.4612 l0.9057 0.81672 c0.30697 0.27392 0.58025 0.53959 0.88722 0.86436 c1.3684 1.4237 2.5086 3.0305 3.2745 4.7681 z M32.395 36.947 c0.23514 -0.94002 -0.086544 -1.9011 -0.70812 -2.4604 c-0.29807 -0.28664 -0.63492 -0.49195 -0.9597 -0.63624 c-0.25166 -0.16652 -0.61584 -0.32608 -0.89736 -0.49892 c-0.31459 -0.15381 -0.6495 -0.27838 -0.96348 -0.42011 c-1.3315 -0.47666 -2.7889 -0.68256 -4.2234 -0.6171 c-0.24404 0.0089064 -0.48557 0.038789 -0.72708 0.065508 l-1.9811 11.456 c3.0666 -0.46207 5.9407 -1.7644 8.1132 -3.6463 c0.34763 -0.28283 0.6711 -0.61458 0.97362 -0.91392 c0.28858 -0.29807 0.54088 -0.6171 0.7722 -0.92916 c0.29174 -0.46013 0.49447 -0.9273 0.60126 -1.3989 z"></path>
        </g>

		<g id="SvgjsG1058" featureKey="nameFeature-0" transform="matrix(0.7836393779334035,0,0,0.7836393779334035,93.74649132514278,14.59624974177736)" fill="currentColor">
			<path d="M11.867 19.412 c5.6612 0 10.266 4.6056 10.266 10.267 s-4.6056 10.267 -10.267 10.267 c-2.1837 0 -4.2088 -0.68764 -5.8744 -1.8543 l0 7.1249 c0 1.2128 -0.98328 2.196 -2.196 2.196 s-2.196 -0.98328 -2.196 -2.196 l0 -23.608 c0 -1.2128 0.98328 -2.196 2.196 -2.196 c1.1027 0 2.013 0.81364 2.1697 1.873 c1.6709 -1.1782 3.7059 -1.873 5.9012 -1.873 z M11.867 35.5528 c3.2392 0 5.8744 -2.6353 5.8744 -5.8744 s-2.6353 -5.8744 -5.8744 -5.8744 s-5.8744 2.6353 -5.8744 5.8744 s2.6353 5.8744 5.8744 5.8744 z M34.242999999999995 35.608 c1.2128 0 2.1961 0.98332 2.1961 2.1961 s-0.98328 2.196 -2.196 2.196 c-5.7668 0 -10.459 -4.692 -10.459 -10.459 l0 -15.345 c0 -1.2128 0.98328 -2.196 2.196 -2.196 s2.196 0.98328 2.196 2.196 l0 15.345 c0 3.3452 2.7215 6.0668 6.0668 6.0668 z M54.519999999999996 19.412 c1.2128 0 2.196 0.98328 2.196 2.196 l0 8.098 c0 5.6764 -4.6176 10.294 -10.294 10.294 s-10.294 -4.6176 -10.294 -10.294 l0 -8.098 c0 -1.2128 0.98328 -2.196 2.196 -2.196 s2.196 0.98328 2.196 2.196 l0 8.098 c0 3.2543 2.6476 5.902 5.902 5.902 s5.902 -2.6476 5.902 -5.902 l0 -8.098 c0 -1.2128 0.98328 -2.196 2.196 -2.196 z M76.729 19.412 c1.2128 0 2.1961 0.98324 2.1961 2.196 l0 15.537 c0 5.6612 -4.6056 10.267 -10.267 10.267 c-1.2128 0 -2.196 -0.98328 -2.196 -2.196 s0.98328 -2.196 2.196 -2.196 c2.8933 0 5.2992 -2.1046 5.7808 -4.862 c-1.6476 1.1269 -3.6384 1.7876 -5.7808 1.7876 c-5.6612 0 -10.267 -4.6056 -10.267 -10.267 s4.6056 -10.267 10.267 -10.267 c2.1952 0 4.23 0.69476 5.9008 1.873 c0.15676 -1.0593 1.067 -1.873 2.1697 -1.873 z M68.659 35.5528 c3.2392 0 5.8744 -2.6353 5.8744 -5.8744 s-2.6353 -5.8744 -5.8744 -5.8744 s-5.8744 2.6353 -5.8744 5.8744 s2.6353 5.8744 5.8744 5.8744 z M98.913 19.412 c1.2128 0 2.1961 0.98324 2.1961 2.196 l0 15.537 c0 5.6612 -4.6056 10.267 -10.267 10.267 c-1.2128 0 -2.196 -0.98328 -2.196 -2.196 s0.98328 -2.196 2.196 -2.196 c2.8933 0 5.2992 -2.1046 5.7808 -4.862 c-1.6476 1.1269 -3.6384 1.7876 -5.7808 1.7876 c-5.6612 0 -10.267 -4.6056 -10.267 -10.267 s4.6056 -10.267 10.267 -10.267 c2.1952 0 4.23 0.69476 5.9008 1.873 c0.15676 -1.0593 1.067 -1.873 2.1697 -1.873 z M90.843 35.5528 c3.2392 0 5.8744 -2.6353 5.8744 -5.8744 s-2.6353 -5.8744 -5.8744 -5.8744 s-5.8744 2.6353 -5.8744 5.8744 s2.6353 5.8744 5.8744 5.8744 z M121.152 19.412 c1.2128 0 2.196 0.98328 2.196 2.196 l0 16.196 c0 1.2128 -0.98328 2.196 -2.196 2.196 c-1.1071 0 -2.0201 -0.81968 -2.1716 -1.885 c-1.677 1.1856 -3.721 1.885 -5.9264 1.885 c-5.6764 0 -10.294 -4.6176 -10.294 -10.294 s4.6176 -10.294 10.294 -10.294 c2.2054 0 4.2492 0.69944 5.9264 1.885 c0.15152 -1.0654 1.0645 -1.885 2.1716 -1.885 z M113.054 35.608 c3.2543 0 5.902 -2.6476 5.902 -5.902 s-2.6476 -5.902 -5.902 -5.902 s-5.902 2.6476 -5.902 5.902 s2.6476 5.902 5.902 5.902 z M144.57299999999998 19.412 c4.4008 0 7.9804 3.5802 7.9804 7.9804 l0 10.412 c0 1.2128 -0.98328 2.196 -2.196 2.196 s-2.196 -0.98328 -2.196 -2.196 l0 -10.412 c0 -1.9784 -1.6097 -3.5881 -3.5884 -3.5881 c-1.9784 0 -3.5881 1.6094 -3.5881 3.5881 l0 10.412 c0 1.2128 -0.98328 2.196 -2.196 2.196 s-2.196 -0.98328 -2.196 -2.196 l0 -10.412 c0 -1.9784 -1.6094 -3.5881 -3.5881 -3.5881 s-3.5884 1.6094 -3.5884 3.5881 l0 10.412 c0 1.2128 -0.98328 2.196 -2.196 2.196 s-2.196 -0.98328 -2.196 -2.196 l0 -16.196 c0 -1.2128 0.98328 -2.196 2.196 -2.196 c0.78592 0 1.4736 0.4142 1.8615 1.0349 c1.1595 -0.65744 2.4978 -1.0349 3.923 -1.0349 c2.2748 0 4.3288 0.9586 5.784 2.4912 c1.4549 -1.5326 3.509 -2.4912 5.784 -2.4912 z M172.6 19.412 c1.2128 0 2.196 0.98328 2.196 2.196 l0 16.196 c0 1.2128 -0.98328 2.196 -2.196 2.196 c-1.1071 0 -2.0201 -0.81968 -2.1716 -1.885 c-1.677 1.1856 -3.721 1.885 -5.9264 1.885 c-5.6764 0 -10.294 -4.6176 -10.294 -10.294 s4.6176 -10.294 10.294 -10.294 c2.2054 0 4.2492 0.69944 5.9264 1.885 c0.15152 -1.0654 1.0645 -1.885 2.1716 -1.885 z M164.502 35.608 c3.2543 0 5.902 -2.6476 5.902 -5.902 s-2.6476 -5.902 -5.902 -5.902 s-5.902 2.6476 -5.902 5.902 s2.6476 5.902 5.902 5.902 z M186.931 35.608 c1.2128 0 2.1961 0.98332 2.1961 2.1961 s-0.98328 2.196 -2.196 2.196 c-5.7668 0 -10.459 -4.692 -10.459 -10.459 l0 -15.345 c0 -1.2128 0.98328 -2.196 2.196 -2.196 s2.196 0.98328 2.196 2.196 l0 5.2217 l6.0666 0 c1.2128 0 2.196 0.98328 2.196 2.196 s-0.98328 2.196 -2.196 2.196 l-6.0666 0 l0 5.7312 c0 3.3452 2.7215 6.0668 6.0668 6.0668 z M201.275 35.608 c1.2128 0 2.1961 0.98332 2.1961 2.1961 s-0.98328 2.196 -2.196 2.196 c-5.7668 0 -10.459 -4.692 -10.459 -10.459 l0 -15.345 c0 -1.2128 0.98328 -2.196 2.196 -2.196 s2.196 0.98328 2.196 2.196 l0 5.2217 l6.0666 0 c1.2128 0 2.196 0.98328 2.196 2.196 s-0.98328 2.196 -2.196 2.196 l-6.0666 0 l0 5.7312 c0 3.3452 2.7215 6.0668 6.0668 6.0668 z M213.454 19.412 c5.6764 0 10.294 4.6176 10.294 10.294 c0 1.2128 -0.98328 2.196 -2.196 2.196 l-13.576 0 c0.87292 2.17 2.9995 3.7059 5.4784 3.7059 c1.5765 0 3.0586 -0.6138 4.1732 -1.7286 c0.85784 -0.85756 2.248 -0.85732 3.1058 0 c0.85784 0.85784 0.85756 2.2482 0 3.1058 c-1.9446 1.9443 -4.5296 3.0149 -7.2792 3.0149 c-5.6764 0 -10.294 -4.6176 -10.294 -10.294 s4.6176 -10.294 10.294 -10.294 z M207.97560000000001 27.509999999999998 l10.957 0 c-0.87292 -2.17 -2.9995 -3.7059 -5.4784 -3.7059 s-4.6056 1.5359 -5.4784 3.7059 z M227.7724 37.3757 c0.030195 0.14 0.043944 0.28551 0.043944 0.42824 s-0.013711 0.28824 -0.043908 0.42824 c-0.027461 0.14 -0.068632 0.28 -0.12352 0.41176 s-0.12352 0.26078 -0.20312 0.37883 c-0.079608 0.12078 -0.1702 0.23332 -0.27176 0.33488 s-0.2141 0.19215 -0.33488 0.27176 c-0.11805 0.079608 -0.24707 0.14824 -0.37883 0.20312 s-0.27176 0.096056 -0.41176 0.12352 c-0.14 0.030195 -0.28551 0.043908 -0.42824 0.043908 s-0.28824 -0.013711 -0.42824 -0.043908 c-0.14 -0.027461 -0.28 -0.068632 -0.41176 -0.12352 s-0.26078 -0.12352 -0.37883 -0.20312 c-0.12078 -0.079608 -0.23332 -0.1702 -0.33488 -0.27176 s-0.19215 -0.2141 -0.27176 -0.33488 c-0.079608 -0.11805 -0.14824 -0.24707 -0.20312 -0.37883 s-0.096056 -0.27176 -0.12352 -0.41176 c-0.030195 -0.14 -0.043908 -0.28551 -0.043908 -0.42824 s0.013711 -0.28824 0.043908 -0.42824 c0.027461 -0.14 0.068632 -0.28 0.12352 -0.41176 s0.12352 -0.26078 0.20312 -0.37883 c0.079608 -0.12078 0.1702 -0.23332 0.27176 -0.33488 s0.2141 -0.19215 0.33488 -0.27176 c0.11805 -0.079608 0.24707 -0.14824 0.37883 -0.20312 s0.27176 -0.096056 0.41176 -0.12352 c0.28274 -0.057656 0.57372 -0.057656 0.85644 0 c0.14 0.027461 0.28 0.068632 0.41176 0.12352 s0.26078 0.12352 0.37883 0.20312 c0.12078 0.079608 0.23332 0.1702 0.33488 0.27176 s0.19215 0.2141 0.27176 0.33488 c0.079608 0.11805 0.14824 0.24707 0.20312 0.37883 s0.096056 0.27176 0.12352 0.41176 z M241.47100000000003 27.509999999999998 c3.4434 0 6.2452 2.8016 6.2452 6.2452 s-2.8016 6.2452 -6.2452 6.2452 l-8.098 0 c-1.2128 0 -2.196 -0.98328 -2.196 -2.196 s0.98328 -2.196 2.196 -2.196 l8.098 0 c1.0217 0 1.8529 -0.8312 1.8529 -1.8529 s-0.8312 -1.8529 -1.8529 -1.8529 l-8.098 0 c-3.4434 0 -6.2452 -2.8016 -6.2452 -6.2452 s2.8016 -6.2452 6.2452 -6.2452 l8.098 0 c1.2128 0 2.196 0.98328 2.196 2.196 s-0.98328 2.196 -2.196 2.196 l-8.098 0 c-1.0217 0 -1.8529 0.8312 -1.8529 1.8529 s0.8312 1.8529 1.8529 1.8529 l8.098 0 z M259.286 19.412 c5.6764 0 10.294 4.6176 10.294 10.294 c0 1.2128 -0.98328 2.196 -2.196 2.196 l-13.576 0 c0.87292 2.17 2.9995 3.7059 5.4784 3.7059 c1.5765 0 3.0586 -0.6138 4.1732 -1.7286 c0.85784 -0.85756 2.248 -0.85732 3.1058 0 c0.85784 0.85784 0.85756 2.2482 0 3.1058 c-1.9446 1.9443 -4.5296 3.0149 -7.2792 3.0149 c-5.6764 0 -10.294 -4.6176 -10.294 -10.294 s4.6176 -10.294 10.294 -10.294 z M253.80760000000004 27.509999999999998 l10.957 0 c-0.87292 -2.17 -2.9995 -3.7059 -5.4784 -3.7059 s-4.6056 1.5359 -5.4784 3.7059 z"></path>
		</g>
	</g>
</svg>
